<?xml version="1.0" encoding="UTF-8"?>
<svg version="1.1" xmlns="http://www.w3.org/2000/svg" width="3375" height="722">
<path d="M0 0 C1113.75 0 2227.5 0 3375 0 C3375 238.26 3375 476.52 3375 722 C2261.25 722 1147.5 722 0 722 C0 483.74 0 245.48 0 0 Z " fill="#000000" transform="translate(0,0)"/>
<path d="M0 0 C21.78 0 43.56 0 66 0 C64.04582708 7.1653007 62.03418446 14.12136979 59.5859375 21.10546875 C59.25937668 22.0461319 58.93281586 22.98679504 58.59635925 23.95596313 C57.52632217 27.03446186 56.45079725 30.11100993 55.375 33.1875 C54.61301819 35.37518087 53.85122147 37.56292621 53.08959961 39.75073242 C47.61909195 55.44633588 42.07511471 71.11562534 36.50872803 86.7774353 C30.92515845 102.49080959 25.43817695 118.23575562 20 134 C13.87661922 151.7505204 7.66998847 169.46886036 1.38037109 187.16113281 C-3.98245794 202.25044279 -9.2668723 217.36524028 -14.5 232.5 C-20.44424158 249.69093441 -26.47146207 266.85030435 -32.5625 283.98974609 C-37.9435916 299.13643085 -43.24695154 314.30845799 -48.5 329.5 C-54.82697096 347.79632553 -61.24715647 366.05759133 -67.73046875 384.29907227 C-71.30704889 394.36713389 -74.86074122 404.44242765 -78.3671875 414.53515625 C-78.71802399 415.54449219 -79.06886047 416.55382812 -79.43032837 417.59375 C-81.10579911 422.41633117 -82.77741423 427.24020674 -84.44384766 432.06591797 C-85.03540778 433.77183555 -85.62703777 435.47772892 -86.21875 437.18359375 C-86.62213089 438.35789696 -86.62213089 438.35789696 -87.03366089 439.55592346 C-88.88673002 444.88673002 -88.88673002 444.88673002 -90 446 C-92.02494231 446.09409479 -94.0531987 446.11743122 -96.08032227 446.11352539 C-98.03223228 446.11341209 -98.03223228 446.11341209 -100.02357483 446.11329651 C-101.45451902 446.10818909 -102.88546282 446.10297308 -104.31640625 446.09765625 C-105.7722926 446.09579203 -107.22817957 446.09436815 -108.68406677 446.09336853 C-112.52279379 446.08954365 -116.36148319 446.07971364 -120.20019531 446.06866455 C-124.11457816 446.05844978 -128.02896706 446.05387077 -131.94335938 446.04882812 C-139.62892343 446.03809134 -147.31445645 446.02101529 -155 446 C-153.80743192 440.09546173 -152.27280065 434.48267434 -150.21484375 428.82421875 C-149.82311729 427.72555229 -149.82311729 427.72555229 -149.42347717 426.60469055 C-148.59984252 424.29712439 -147.76909118 421.99220937 -146.9375 419.6875 C-146.10357798 417.36451757 -145.27120445 415.04099728 -144.44081116 412.7167511 C-143.92672647 411.27905899 -143.41042364 409.84215752 -142.8915863 408.40617371 C-141.77440253 405.29266931 -140.7674814 402.21640705 -140 399 C-141.09279266 399.02886795 -142.18558533 399.0577359 -143.31149292 399.08747864 C-153.63847069 399.35165566 -163.9647586 399.546183 -174.29435539 399.67355824 C-179.60457639 399.74125087 -184.91205863 399.83295758 -190.22070312 399.98071289 C-195.34974916 400.1225667 -200.47617204 400.19981139 -205.60702896 400.23340416 C-207.55852688 400.25732211 -209.50988992 400.30403649 -211.4602623 400.37449074 C-226.33765818 400.89025953 -226.33765818 400.89025953 -230.7824955 397.73443031 C-234.29051453 394.27083544 -236.59426641 390.26769405 -239 386 C-240.18252784 384.4735981 -241.39221811 382.96690257 -242.65234375 381.50390625 C-243.19503906 380.85099609 -243.73773437 380.19808594 -244.296875 379.52539062 C-244.83828125 378.87763672 -245.3796875 378.22988281 -245.9375 377.5625 C-250.19765355 372.42906118 -254.40369142 367.26516052 -258.5 362 C-262.57902819 356.75877792 -266.7636162 351.61479109 -271 346.5 C-275.80849944 340.69427407 -280.53132944 334.83434582 -285.16577148 328.88891602 C-287.91669853 325.36379732 -290.71582137 321.88636065 -293.5625 318.4375 C-298.52912254 312.40917191 -303.26850649 306.21317206 -308 300 C-310.95170386 301.32804853 -313.00588046 302.76634727 -315.26806641 305.07275391 C-315.88195221 305.69324615 -316.49583801 306.3137384 -317.12832642 306.95303345 C-317.77949432 307.62079803 -318.43066223 308.28856262 -319.1015625 308.9765625 C-319.77923676 309.66181 -320.45691101 310.3470575 -321.15512085 311.05307007 C-323.31661346 313.23897612 -325.4715406 315.43118126 -327.625 317.625 C-330.46569408 320.51867328 -333.31278034 323.40582606 -336.1640625 326.2890625 C-336.81927887 326.96087555 -337.47449524 327.6326886 -338.14956665 328.32485962 C-338.75714813 328.93904755 -339.36472961 329.55323547 -339.99072266 330.18603516 C-340.52492828 330.73071442 -341.05913391 331.27539368 -341.60952759 331.83657837 C-343 333 -343 333 -345 333 C-345 354.45 -345 375.9 -345 398 C-369.09 398 -393.18 398 -418 398 C-418 282.5 -418 167 -418 48 C-393.91 48 -369.82 48 -345 48 C-345 113.34 -345 178.68 -345 246 C-344.34 246 -343.68 246 -343 246 C-342.67708984 245.17048828 -342.67708984 245.17048828 -342.34765625 244.32421875 C-340.5573069 241.2365148 -338.0908423 239.13725502 -335.4375 236.8125 C-334.3461218 235.83634829 -333.25629244 234.85846232 -332.16796875 233.87890625 C-331.36045166 233.1521167 -331.36045166 233.1521167 -330.53662109 232.41064453 C-328.37221683 230.42368428 -326.30924729 228.34518528 -324.25 226.25 C-321.62551188 223.58788481 -318.9671408 221.05290165 -316.125 218.625 C-312.75442257 215.737852 -309.61496136 212.65753002 -306.5 209.5 C-302.83153141 205.78153524 -299.06850777 202.2633181 -295.09375 198.875 C-292.46014473 196.51654752 -289.98173486 194.01554596 -287.5 191.5 C-283.83152419 187.78154495 -280.06850771 184.26331805 -276.09375 180.875 C-273.46014473 178.51654752 -270.98173486 176.01554596 -268.5 173.5 C-264.8328248 169.78286328 -261.07162374 166.26534672 -257.09765625 162.87890625 C-253.50859797 159.66412592 -250.1740657 156.19157692 -246.80859375 152.74609375 C-245.88175781 151.83988281 -244.95492187 150.93367187 -244 150 C-243.50711455 149.48628027 -243.01422911 148.97256054 -242.50640774 148.44327354 C-238.63769169 144.70545406 -235.9302513 143.31270281 -230.54446411 143.253479 C-229.74676605 143.27505066 -228.94906799 143.29662231 -228.12719727 143.31884766 C-227.26786087 143.3179715 -226.40852448 143.31709534 -225.52314758 143.31619263 C-222.70328544 143.32034865 -219.88584896 143.36690421 -217.06640625 143.4140625 C-215.10344237 143.42526176 -213.14046166 143.4337985 -211.17747498 143.43978882 C-206.02647086 143.46262967 -200.87649191 143.5215121 -195.72589111 143.5880127 C-190.46388617 143.64953761 -185.20171456 143.67682562 -179.93945312 143.70703125 C-169.6258532 143.77125987 -159.31301206 143.87358191 -149 144 C-149.93910501 145.10597148 -150.87971465 146.21066544 -151.82093811 147.31483459 C-152.34457475 147.93015077 -152.86821138 148.54546694 -153.4077158 149.17942905 C-155.75712366 151.86567293 -158.26500751 154.37024248 -160.80859375 156.87109375 C-161.33840347 157.39711685 -161.8682132 157.92313995 -162.41407776 158.46510315 C-164.64565901 160.6805848 -166.88322705 162.88998157 -169.12036133 165.09985352 C-170.76859066 166.72977722 -172.41363489 168.36287044 -174.05859375 169.99609375 C-174.55048691 170.47968857 -175.04238007 170.96328339 -175.54917908 171.46153259 C-178.21320001 174.1072443 -180.73180554 176.82181286 -183.17407227 179.67407227 C-187.41742253 184.57059673 -192.00308061 189.11608938 -196.60075378 193.67591858 C-198.19353491 195.25573133 -199.78299157 196.83882586 -201.3717041 198.42272949 C-205.31514616 202.35292659 -209.26406286 206.27760772 -213.21282959 210.20245361 C-216.56139027 213.53115714 -219.90780693 216.86198931 -223.25151062 220.1955719 C-224.80415238 221.74181555 -226.35981403 223.2849738 -227.91564941 224.82800293 C-232.64200303 229.53015544 -237.26119023 234.27195217 -241.58058167 239.35449219 C-243.74673466 241.86567693 -246.07641755 244.17126115 -248.4375 246.5 C-249.30246094 247.3559375 -250.16742187 248.211875 -251.05859375 249.09375 C-251.69925781 249.7228125 -252.33992188 250.351875 -253 251 C-251.35728782 254.71164158 -249.05107313 257.68166296 -246.5625 260.875 C-246.12220459 261.44162354 -245.68190918 262.00824707 -245.22827148 262.59204102 C-243.82289284 264.39789433 -242.41213716 266.19942814 -241 268 C-240.54882812 268.57637207 -240.09765625 269.15274414 -239.6328125 269.74658203 C-236.89172946 273.24720651 -234.14299328 276.74174618 -231.39111328 280.23388672 C-229.09125763 283.15371048 -226.79584055 286.07701893 -224.5 289 C-223.5833549 290.16668361 -222.66668823 291.33335027 -221.75 292.5 C-194.25 327.5 -194.25 327.5 -192.87524414 329.24975586 C-191.95784991 330.4173041 -191.04036933 331.58478449 -190.12280273 332.75219727 C-187.84155755 335.6548279 -185.56178786 338.55859274 -183.28515625 341.46484375 C-178.59963901 347.4425401 -173.88571634 353.39448675 -169.125 359.3125 C-164.78728905 364.706208 -160.5589718 370.1738579 -156.375 375.6875 C-148.38270868 387.74468366 -148.38270868 387.74468366 -138 397 C-137.73767578 395.71198486 -137.47535156 394.42396973 -137.20507812 393.09692383 C-136.08240399 388.0606602 -134.47770716 383.29406312 -132.71875 378.44921875 C-132.2308197 377.08347466 -132.2308197 377.08347466 -131.73303223 375.69013977 C-131.0290015 373.7206074 -130.32266651 371.75189748 -129.61425781 369.78393555 C-127.67891133 364.40575862 -125.76195862 359.02102705 -123.84375 353.63671875 C-123.44381836 352.5152243 -123.04388672 351.39372986 -122.63183594 350.23825073 C-118.34099071 338.18648545 -114.16780503 326.09473988 -110 314 C-103.8782194 296.2489362 -97.66998265 278.53112325 -91.38037109 260.83886719 C-86.01754206 245.74955721 -80.7331277 230.63475972 -75.5 215.5 C-69.55575842 198.30906559 -63.52853793 181.14969565 -57.4375 164.01025391 C-52.05640857 148.86356961 -46.75300305 133.69155744 -41.5 118.5 C-35.53791161 101.25822934 -29.49495518 84.0471459 -23.38723755 66.85644531 C-15.48407291 44.60786807 -7.73766628 22.30678568 0 0 Z " fill="#FD4F00" transform="translate(2801,141)"/>
<path d="M0 0 C23.38158651 21.71904739 38.02026584 51.734251 39.9375 83.75 C41.31399554 121.76577985 31.41705251 155.98540079 5.6171875 184.484375 C-2.35224649 192.95726211 -11.16384255 199.68268198 -21.0625 205.75 C-21.95243652 206.30228271 -21.95243652 206.30228271 -22.86035156 206.86572266 C-57.23304247 227.79200195 -102.56370572 230.78754979 -141.0625 221.75 C-175.96474552 212.8698698 -205.06791851 191.5654844 -223.86474609 160.84033203 C-240.25964122 132.22779797 -245.38200848 95.70121577 -237.0625 63.75 C-236.7840625 62.50863281 -236.505625 61.26726562 -236.21875 59.98828125 C-233.97686968 50.58591248 -230.4903925 42.28140557 -226.0625 33.75 C-225.60617187 32.85450439 -225.60617187 32.85450439 -225.140625 31.94091797 C-220.2654678 22.48238998 -214.26843105 14.55476188 -207.0625 6.75 C-206.1859375 5.7909375 -205.309375 4.831875 -204.40625 3.84375 C-197.62563996 -3.25594757 -190.23390962 -8.88803281 -182.0625 -14.25 C-181.12019531 -14.87648438 -180.17789063 -15.50296875 -179.20703125 -16.1484375 C-124.81394518 -50.05780851 -47.23415787 -42.28718419 0 0 Z " fill="#FC4F00" transform="translate(1096.0625,317.25)"/>
<path d="M0 0 C24.42 0 48.84 0 74 0 C74.33 40.26 74.66 80.52 75 122 C77.97 119.36 80.94 116.72 84 114 C97.53049036 104.21590005 112.73832392 98.3054888 129 95 C130.04542969 94.77441406 131.09085938 94.54882812 132.16796875 94.31640625 C149.58136141 91.17983242 168.88445101 91.47632515 186 96 C187.08539062 96.26683594 188.17078125 96.53367187 189.2890625 96.80859375 C202.79771501 100.50621761 215.13155182 107.230532 226 116 C226.71542969 116.56332031 227.43085937 117.12664062 228.16796875 117.70703125 C249.25670191 135.12461163 257.9019471 162.7016592 260.81295919 188.93968701 C261.37245035 195.10265712 261.25844947 201.30022549 261.22705078 207.48217773 C261.22648492 209.07057691 261.22680662 210.65897661 261.22793579 212.24737549 C261.2285035 216.50879528 261.21684487 220.77009969 261.20278788 225.03149295 C261.19018212 229.50374164 261.18910233 233.97599373 261.18673706 238.44825745 C261.18055096 246.89449128 261.16417948 255.34067258 261.14403808 263.78688341 C261.11738156 275.21623845 261.10668322 286.64560812 261.09503365 298.07498646 C261.07629643 316.05003022 261.03643178 334.02496321 261 352 C236.58 352 212.16 352 187 352 C186.95101563 341.76742188 186.90203125 331.53484375 186.8515625 320.9921875 C186.81615968 314.49348133 186.78026908 307.99478386 186.7421875 301.49609375 C186.68188869 291.19061298 186.6235301 280.88514844 186.578125 270.57958984 C186.54503972 263.07233767 186.50511907 255.5651572 186.45720994 248.05798447 C186.43210814 244.08813781 186.41028008 240.1183377 186.39665604 236.14843369 C186.38368576 232.400644 186.36147574 228.65301533 186.33261681 224.9053154 C186.31943137 222.89701215 186.31564872 220.8886538 186.31230164 218.88031006 C186.16497609 202.63622329 184.72200557 184.3934331 173 172 C172.44957031 171.39800781 171.89914062 170.79601562 171.33203125 170.17578125 C161.11736402 160.13535141 147.56512489 157.73229892 133.7668457 157.75341797 C117.71595538 158.00450872 103.90774343 162.46356631 92.18359375 173.71875 C77.60281333 188.95162256 74.88795687 208.18845107 74.79467773 228.484375 C74.78508301 229.83529448 74.77507203 231.18621106 74.76467896 232.53712463 C74.73779635 236.18321015 74.71669741 239.82930838 74.69667697 243.47543716 C74.67471393 247.29378794 74.64737602 251.11210026 74.62062073 254.93041992 C74.57083266 262.15144812 74.52584269 269.37249782 74.48259836 276.59356785 C74.42384276 286.35812017 74.35763104 296.12262179 74.29184818 305.88712883 C74.18849089 321.25805166 74.09505739 336.62901841 74 352 C49.58 352 25.16 352 0 352 C0 235.84 0 119.68 0 0 Z " fill="#FC4F00" transform="translate(1436,188)"/>
<path d="M0 0 C24.42 0 48.84 0 74 0 C74.33 65.34 74.66 130.68 75 198 C78.63 194.37 82.26 190.74 86 187 C90 183.5 90 183.5 91.90625 181.875 C94.53985527 179.51654752 97.01826514 177.01554596 99.5 174.5 C103.16847581 170.78154495 106.93149229 167.26331805 110.90625 163.875 C113.53985527 161.51654752 116.01826514 159.01554596 118.5 156.5 C122.16847581 152.78154495 125.93149229 149.26331805 129.90625 145.875 C132.53985527 143.51654752 135.01826514 141.01554596 137.5 138.5 C141.16847581 134.78154495 144.93149229 131.26331805 148.90625 127.875 C151.53985527 125.51654752 154.01826514 123.01554596 156.5 120.5 C160.13700007 116.81344952 163.8216837 113.27464527 167.8391571 110.00166321 C170.11880552 108.00216985 170.11880552 108.00216985 172.08235168 105.28971863 C175.92407962 100.57633669 179.17136782 96.9911361 185.38363647 96.03042603 C190.6991741 95.58889488 195.99948721 95.76065969 201.32421875 95.92578125 C203.28143414 95.94633126 205.23870663 95.96197344 207.19599915 95.97294617 C212.31521453 96.01468604 217.43092455 96.12249581 222.54876709 96.24468994 C227.7839822 96.35779298 233.01977125 96.40757741 238.25585938 96.46289062 C248.50543549 96.58039998 258.75242482 96.76780657 269 97 C267.46374962 100.64951371 265.27668889 102.95972684 262.4777832 105.73339844 C262.02056381 106.18930359 261.56334442 106.64520874 261.0922699 107.1149292 C259.58298883 108.61773267 258.06685442 110.11342665 256.55078125 111.609375 C255.49372679 112.66015161 254.43719079 113.71145 253.38114929 114.76324463 C250.59822101 117.53287687 247.80979129 120.29689748 245.01971436 123.05932617 C240.57128318 127.46465825 236.12940906 131.87657271 231.69099998 136.29199982 C230.14980334 137.82309235 228.60517189 139.35065291 227.06013489 140.87786865 C223.07786134 144.82639651 219.12643982 148.76524652 215.47924805 153.02954102 C211.48810453 157.69091589 207.1024314 161.93157689 202.71031189 166.2120266 C200.12545164 168.73515824 197.55651272 171.27445879 194.984375 173.81054688 C191.72865675 177.01823628 188.46843742 180.22100436 185.19335938 183.40893555 C182.52690832 186.00525564 179.87524821 188.61588674 177.23292542 191.23674965 C176.22712774 192.22895913 175.21593653 193.21573207 174.19932556 194.19685936 C172.78525776 195.56281382 171.39111693 196.94930725 169.99804688 198.33666992 C169.19975464 199.11862228 168.4014624 199.90057465 167.57897949 200.70622253 C165.72682045 202.89861737 165.72682045 202.89861737 166.13586426 205.63423157 C167.28883861 208.79076148 169.02181299 210.73430499 171.25 213.25 C175.46606786 218.11368669 179.43534552 223.11237624 183.3125 228.25 C188.19305304 234.69484211 193.20999607 241.00527822 198.33300781 247.25854492 C201.64531908 251.30965609 204.89015391 255.40095522 208.0625 259.5625 C211.58284562 264.17869514 215.17033813 268.72946911 218.8125 273.25 C223.10672048 278.58289974 227.2992456 283.98281081 231.4375 289.4375 C236.2798178 295.81653178 241.25853141 302.06423739 246.33349609 308.25927734 C249.64575833 312.31005064 252.89038776 316.40114492 256.0625 320.5625 C259.72610205 325.3676159 263.46392426 330.10337514 267.25 334.8125 C279 349.45866601 279 349.45866601 279 352 C267.62149387 352.37221656 256.24445508 352.65573932 244.86108112 352.82899475 C239.57372524 352.91219478 234.29055908 353.02482011 229.00561523 353.20703125 C223.89586654 353.38208092 218.79012002 353.47677639 213.67760277 353.51803589 C211.73673668 353.54739603 209.79606813 353.60474263 207.85692787 353.69168091 C193.1244627 354.32535894 193.1244627 354.32535894 187.93749619 350.46499634 C184.13679776 346.72849944 181.1662331 342.52335407 178.3228054 338.03388977 C176.27243473 334.88132634 173.91948871 331.98818979 171.5625 329.0625 C170.66656804 327.91906488 169.7718824 326.77465122 168.87890625 325.62890625 C165.06600479 320.79032762 161.12091336 316.06073015 157.19165039 311.31665039 C153.10748266 306.37465665 149.12108479 301.36774396 145.18359375 296.30859375 C140.9590649 290.90168948 136.58646323 285.62166649 132.20898438 280.33837891 C127.93570095 275.16874248 123.76734899 269.92682187 119.64526367 264.63623047 C116.53702866 260.65547747 113.33812083 256.78921824 110 253 C103.35888501 258.44384356 97.39847338 264.52156901 91.375 270.625 C89.34411656 272.68265592 87.30981531 274.73684558 85.2734375 276.7890625 C84.38060059 277.69350098 83.48776367 278.59793945 82.56787109 279.52978516 C80 282 80 282 77.38072205 283.74734497 C74.74456973 285.81570783 74.74456973 285.81570783 74.36076355 288.9866333 C74.3507708 290.732034 74.3507708 290.732034 74.34057617 292.51269531 C74.33006131 293.16738171 74.31954645 293.8220681 74.30871296 294.49659348 C74.28040326 296.60760964 74.28599234 298.71696177 74.29296875 300.828125 C74.27834595 302.12153809 74.26372314 303.41495117 74.24865723 304.74755859 C74.20126826 309.58151643 74.19698192 314.41581918 74.1875 319.25 C74.125625 330.0575 74.06375 340.865 74 352 C49.58 352 25.16 352 0 352 C0 235.84 0 119.68 0 0 Z " fill="#FC4F00" transform="translate(562,188)"/>
<path d="M0 0 C0.75120117 0.13921875 1.50240234 0.2784375 2.27636719 0.421875 C13.05155487 2.44485678 22.26026328 6.03397861 32 11 C32.91394531 11.41121094 33.82789063 11.82242187 34.76953125 12.24609375 C55.05094332 21.47653168 69.86704566 40.46933865 77.67529297 60.88037109 C80.80791632 69.67072466 82.54977555 78.79959985 84 88 C84.17014335 89.05993951 84.34028669 90.11987902 84.5155859 91.2119379 C84.98021632 94.84529391 85.12311185 98.29371905 85.12025452 101.95396423 C85.12153615 102.94911359 85.12153615 102.94911359 85.12284368 103.96436697 C85.12447909 106.16759778 85.11900917 108.37075092 85.11352539 110.57397461 C85.11324307 112.16119383 85.11340212 113.74841318 85.1139679 115.33563232 C85.11425413 119.63054689 85.10838546 123.92543338 85.10139394 128.22034144 C85.0951315 132.71399591 85.09455431 137.20765105 85.09336853 141.7013092 C85.09026373 150.20445602 85.08206183 158.70758994 85.07201904 167.21073109 C85.05873847 178.70543492 85.05335112 190.2001423 85.04751682 201.69485188 C85.03812136 219.79657757 85.01819675 237.89827606 85 256 C61.9 256 38.8 256 15 256 C14.67 247.09 14.34 238.18 14 229 C10.63655715 232.34158396 10.63655715 232.34158396 7.3671875 235.7734375 C-7.2111692 251.42036484 -30.13451489 258.18167469 -50.91967773 259.19018555 C-54.2868206 259.25384092 -57.64665382 259.28166436 -61.01391602 259.26074219 C-63.06491502 259.24998734 -65.11504222 259.26073344 -67.16601562 259.2734375 C-91.32533526 259.30130396 -115.87267567 252.62487943 -134 236 C-134.70511719 235.37480469 -135.41023438 234.74960937 -136.13671875 234.10546875 C-148.32203628 222.70929559 -156.68115241 205.55084763 -157.30078125 188.80078125 C-157.51113921 169.39525912 -154.74431722 151.55174225 -141.5625 136.5 C-140.06615688 134.97556853 -138.54588505 133.47416873 -137 132 C-136.29101562 131.29488281 -135.58203125 130.58976563 -134.8515625 129.86328125 C-112.42299963 108.60877672 -79.24719825 105.61825433 -49.83984375 105.8046875 C-48.07052269 105.80843045 -46.30119951 105.81127133 -44.53187561 105.81326294 C-39.93710323 105.82079871 -35.34246289 105.84035716 -30.7477417 105.8626709 C-26.03431991 105.88334964 -21.32087621 105.89231112 -16.60742188 105.90234375 C-7.40489078 105.9236155 1.79754352 105.95762536 11 106 C10.69552089 103.94098838 10.38754541 101.88249361 10.078125 99.82421875 C9.90700195 98.67783936 9.73587891 97.53145996 9.55957031 96.3503418 C7.65560677 84.9506508 3.36210579 74.93397331 -5.8046875 67.52734375 C-23.64498212 55.11532383 -47.36094025 54.68032503 -68.17504883 57.82006836 C-71.48954772 58.42522678 -74.72983581 59.18080735 -78 60 C-79.03592285 60.24943359 -79.03592285 60.24943359 -80.09277344 60.50390625 C-93.96042185 63.90623707 -106.8093883 69.55662162 -118.3984375 77.96875 C-120 79 -120 79 -122 79 C-122.43755615 78.11965088 -122.8751123 77.23930176 -123.32592773 76.33227539 C-124.99069916 72.98436032 -126.65809117 69.63775637 -128.32644653 66.29162598 C-129.06498996 64.80987339 -129.80300991 63.32785977 -130.54049683 61.84558105 C-135.0802817 52.72451764 -139.61780088 43.60979364 -144.69897461 34.77368164 C-145.99157996 32.4431762 -146.97208316 30.53138258 -147.11328125 27.84375 C-145.32115427 24.8757362 -142.55587844 23.43564633 -139.625 21.75 C-138.96161621 21.36231445 -138.29823242 20.97462891 -137.61474609 20.57519531 C-124.85574051 13.33399565 -111.16141627 8.28015621 -97.01025391 4.53808594 C-95.08678976 4.02323107 -93.17385272 3.46952044 -91.26171875 2.9140625 C-62.36588083 -5.06755005 -29.37775336 -5.86796279 0 0 Z " fill="#FC4F00" transform="translate(1904,284)"/>
<path d="M0 0 C22.57637446 18.31983649 32.94723755 43.57477919 36.41208076 72.02832317 C36.90517945 78.18669866 36.7537394 84.38399994 36.73852539 90.55859375 C36.738243 92.16566465 36.73840226 93.77273569 36.7389679 95.37980652 C36.73925386 99.72424696 36.73338958 104.06865957 36.72639394 108.41309357 C36.72012698 112.96012734 36.71955396 117.5071618 36.71836853 122.05419922 C36.71526505 130.65647738 36.70706495 139.25874277 36.69701904 147.86101532 C36.68373314 159.49105338 36.67835005 171.12109495 36.67251682 182.75113869 C36.66312438 201.06326868 36.64319889 219.37537174 36.625 237.6875 C12.205 237.6875 -12.215 237.6875 -37.375 237.6875 C-37.41238281 227.34535156 -37.44976563 217.00320313 -37.48828125 206.34765625 C-37.51857922 199.77147129 -37.54961948 193.19530351 -37.58398438 186.61914062 C-37.63831873 176.19541025 -37.68973775 165.77172748 -37.72143555 155.34790039 C-37.74454244 147.75379643 -37.77807969 140.15981912 -37.82370156 132.56581587 C-37.84746428 128.55169728 -37.86630322 124.5377028 -37.87261391 120.5235157 C-37.06254169 85.77388933 -37.06254169 85.77388933 -52.5 55.6875 C-65.06048771 44.19690051 -80.9507528 42.88661818 -97.10839844 43.53955078 C-112.1202031 44.51942515 -124.88324259 51.35059328 -135.07666016 62.19775391 C-147.58716279 76.55260293 -149.66148708 97.17811962 -149.69384766 115.44238281 C-149.70389328 116.76086716 -149.7139389 118.0793515 -149.72428894 119.43778992 C-149.7513178 123.01339957 -149.76665667 126.58897045 -149.77971697 130.16465473 C-149.79546779 133.91627198 -149.82221912 137.6678114 -149.8477478 141.41937256 C-149.8943259 148.50567841 -149.93117069 155.59199926 -149.96442068 162.67837882 C-150.00998187 172.26678718 -150.07077734 181.85509858 -150.13066864 191.44342613 C-150.22447325 206.52473521 -150.29809525 221.60607334 -150.375 236.6875 C-174.465 236.6875 -198.555 236.6875 -223.375 236.6875 C-223.375 152.8675 -223.375 69.0475 -223.375 -17.3125 C-200.275 -17.3125 -177.175 -17.3125 -153.375 -17.3125 C-153.045 -8.0725 -152.715 1.1675 -152.375 10.6875 C-150.84875 9.223125 -149.3225 7.75875 -147.75 6.25 C-131.60526319 -8.59604307 -111.80655775 -16.62611824 -90.375 -20.3125 C-89.33601563 -20.50457031 -88.29703125 -20.69664062 -87.2265625 -20.89453125 C-56.48730595 -24.23033292 -24.89123749 -19.38450781 0 0 Z " fill="#FD4F00" transform="translate(2279.375,302.3125)"/>
<path d="M0 0 C1.10045654 0.49947144 1.10045654 0.49947144 2.22314453 1.0090332 C4.00335147 1.86061332 5.72708336 2.82822343 7.4375 3.8125 C8.85939135 8.07817405 6.93656517 10.62685546 5.0625 14.453125 C4.700354 15.21236267 4.33820801 15.97160034 3.96508789 16.75384521 C2.79842016 19.19459749 1.61833044 21.62857287 0.4375 24.0625 C-0.32774172 25.65580904 -1.09207446 27.24955499 -1.85546875 28.84375 C-2.98661876 31.20474341 -4.11877752 33.56521022 -5.25512695 35.92370605 C-8.75599353 43.18989316 -12.17188645 50.4943349 -15.5625 57.8125 C-16.19639648 57.53051758 -16.83029297 57.24853516 -17.48339844 56.95800781 C-37.50663731 48.07737771 -56.36092689 40.44604365 -78.5625 39.8125 C-80.05233398 39.76367676 -80.05233398 39.76367676 -81.57226562 39.71386719 C-107.60614167 38.73587777 -107.60614167 38.73587777 -130.5625 49.8125 C-134.32138757 53.7764178 -135.85485272 57.48543673 -136.125 62.9375 C-135.8464956 67.60066333 -134.80917051 70.3223292 -131.5625 73.8125 C-126.09283958 77.96595785 -120.56440526 80.0537515 -113.9375 81.625 C-112.95040039 81.86726318 -111.96330078 82.10952637 -110.94628906 82.35913086 C-97.58290525 85.48148061 -84.00043146 87.62181366 -70.46240234 89.83325195 C-38.04854088 95.18230656 -38.04854088 95.18230656 -23.625 101.5 C-22.46218506 102.00200928 -22.46218506 102.00200928 -21.27587891 102.51416016 C-4.73458545 110.00552665 7.71559174 122.92575487 14.4375 139.8125 C20.40899132 157.98198427 18.72230637 178.05679183 10.625 195.25 C7.74113944 200.57902912 4.45080526 205.27850643 0.4375 209.8125 C-0.28050781 210.62460937 -0.99851562 211.43671875 -1.73828125 212.2734375 C-10.99267319 222.11853531 -22.11076659 228.70995481 -34.5625 233.8125 C-35.32304688 234.15796875 -36.08359375 234.5034375 -36.8671875 234.859375 C-74.44762314 251.30872393 -126.87216296 248.17528877 -165.5625 237.8125 C-166.21412109 237.64073242 -166.86574219 237.46896484 -167.53710938 237.29199219 C-183.08375827 233.15193674 -199.6192563 227.62779314 -212.5625 217.8125 C-211.91005456 213.05283799 -210.01433903 209.15286091 -207.95703125 204.87109375 C-207.59534348 204.10757095 -207.2336557 203.34404816 -206.86100769 202.55738831 C-205.70419733 200.11908525 -204.53958302 197.68459857 -203.375 195.25 C-202.61084473 193.64020333 -201.84716823 192.0301793 -201.08398438 190.41992188 C-197.00679772 181.83451378 -192.86207084 173.28915574 -188.5625 164.8125 C-187.61632813 165.30878906 -186.67015625 165.80507813 -185.6953125 166.31640625 C-169.88895022 174.48896799 -154.13483014 180.33715993 -136.78027344 184.29541016 C-134.64823878 184.79250939 -132.53237835 185.33449081 -130.4140625 185.88671875 C-124.09041191 187.40670373 -117.95100561 187.97680693 -111.4609375 188.015625 C-110.70261627 188.02132507 -109.94429504 188.02702515 -109.16299438 188.03289795 C-107.56456879 188.04229357 -105.9661243 188.04886013 -104.36767578 188.05273438 C-101.96481029 188.06239025 -99.56281991 188.09344439 -97.16015625 188.125 C-83.85400212 188.2162982 -69.19986682 187.31238666 -58.625 178.3125 C-54.60124547 173.43522178 -54.10823458 169.74462956 -54.2578125 163.50390625 C-54.70212106 159.57918064 -55.80992069 157.63389379 -58.5625 154.8125 C-70.7574436 146.7742979 -86.66611633 145.08793048 -100.8125 143.4375 C-133.0077953 139.61131154 -172.5693565 134.51845997 -194.5625 107.8125 C-207.30204338 90.7631962 -208.55359465 70.12208161 -206.31054688 49.49560547 C-203.26838595 31.42935935 -190.49678176 15.71230482 -176.078125 5.1875 C-127.49597954 -28.30129695 -51.70375674 -23.6147488 0 0 Z " fill="#FC4F00" transform="translate(1373.5625,298.1875)"/>
<path d="M0 0 C4.45079886 0.82638303 8.53989504 2.21127794 12.76171875 3.81640625 C13.52733124 4.10404846 14.29294373 4.39169067 15.08175659 4.68804932 C17.6184737 5.64234976 20.15300406 6.60231749 22.6875 7.5625 C24.4874568 8.2413736 26.2875074 8.91999858 28.08764648 9.59838867 C33.72754694 11.72581033 39.36414814 13.86187971 45 16 C45.87507202 16.33185303 46.75014404 16.66370605 47.6517334 17.00561523 C63.90300141 23.16975702 80.14486272 29.35855827 96.36567688 35.60243225 C100.60783315 37.23529247 104.85080579 38.86602684 109.09371948 40.49691772 C112.09871589 41.65333313 115.10224084 42.81350948 118.10571289 43.97387695 C126.0616197 47.0378152 134.00231658 50.07573829 142.11328125 52.70703125 C147.43101599 54.4374196 152.55085201 56.41103199 157.68945312 58.61132812 C164.97191851 61.66609679 172.37635242 64.4243289 179.75 67.25 C181.48391284 67.91611039 183.21779937 68.58228929 184.95166016 69.24853516 C195.73068736 73.38615759 206.52363154 77.4837432 217.35839844 81.47363281 C218.23786133 81.79944336 219.11732422 82.12525391 220.0234375 82.4609375 C220.77544434 82.73728027 221.52745117 83.01362305 222.30224609 83.29833984 C224 84 224 84 225 85 C225.09396057 86.93306498 225.11743517 88.86958838 225.11352539 90.80493164 C225.11344986 92.04614273 225.11337433 93.28735382 225.11329651 94.56617737 C225.10818911 95.9308374 225.1029731 97.29549702 225.09765625 98.66015625 C225.095792 100.04878183 225.09436813 101.43740807 225.09336853 102.82603455 C225.08954387 106.48721115 225.07971403 110.1483483 225.06866455 113.80950928 C225.05844932 117.54292263 225.05387067 121.27634234 225.04882812 125.00976562 C225.03809171 132.33986177 225.02101591 139.66992536 225 147 C190.85622076 160.05640049 156.69271344 173.05924364 122.51055908 186.01487732 C108.48061122 191.3330297 94.45522684 196.66318086 80.43041992 201.99487305 C78.41194765 202.76220975 76.39347434 203.52954373 74.375 204.296875 C73.37708939 204.6762471 72.37917877 205.0556192 71.35102844 205.44648743 C64.78009717 207.94420754 58.20825057 210.43950659 51.63586426 212.93339539 C47.03238626 214.6802273 42.42915099 216.42769835 37.82592773 218.17520142 C35.63675724 219.00606337 33.44746994 219.83661767 31.25805664 220.6668396 C28.22381449 221.81745158 25.18999128 222.96916194 22.15625 224.12109375 C21.27308105 224.45566589 20.38991211 224.79023804 19.47998047 225.13494873 C14.29697663 227.10439584 9.14983312 229.14282278 4.02575684 231.2613678 C2 232 2 232 0 232 C0 212.53 0 193.06 0 173 C13.49892083 167.37544965 13.49892083 167.37544965 18.26367188 165.66674805 C19.34366959 165.27770798 20.4236673 164.88866791 21.53639221 164.48783875 C22.66907028 164.08321915 23.80174835 163.67859955 24.96875 163.26171875 C26.8351356 162.59062381 28.70152077 161.91952766 30.56788731 161.24837971 C32.53150181 160.54288407 34.49563424 159.83884919 36.45993042 159.13525391 C40.5604829 157.66635469 44.65943668 156.1930316 48.75805664 154.71875 C49.78665912 154.34878119 49.78665912 154.34878119 50.83604145 153.97133827 C52.22098897 153.47319766 53.60593294 152.97504716 54.99087334 152.47688675 C57.06559703 151.73075977 59.14045377 150.98500392 61.21534729 150.23934937 C72.964659 146.01651826 84.70483454 141.76886362 96.4375 137.5 C97.30701294 137.1837265 98.17652588 136.867453 99.0723877 136.54159546 C117.73560584 129.75066293 136.37147444 122.88544732 155 116 C147.24565783 112.70115143 139.4484088 109.62167958 131.51953125 106.76953125 C130.44893463 106.38162918 129.37833801 105.99372711 128.27529907 105.59407043 C125.98091764 104.76301914 123.68608557 103.93321109 121.39083862 103.10455322 C115.8648879 101.10926346 110.34184146 99.1059722 104.81868935 97.10295105 C102.92389798 96.41586938 101.02899207 95.72910428 99.13407898 95.0423584 C81.9331843 88.80666395 64.76402079 82.4845418 47.59486389 76.16210938 C41.84752115 74.04610339 36.09818512 71.93563493 30.34693909 69.83026123 C26.74239888 68.51052845 23.13861467 67.18873947 19.53494263 65.86663818 C17.85924696 65.25244171 16.18320667 64.63918453 14.50680542 64.0269165 C12.23277521 63.1962324 9.95999777 62.36220918 7.6875 61.52734375 C7.01723282 61.28349442 6.34696564 61.03964508 5.65638733 60.78840637 C1.11400515 59.11400515 1.11400515 59.11400515 0 58 C-0.09376053 56.18944975 -0.1174411 54.37522799 -0.11352539 52.56225586 C-0.11344986 51.40112778 -0.11337433 50.23999969 -0.11329651 49.04368591 C-0.10813522 47.780168 -0.10297394 46.51665009 -0.09765625 45.21484375 C-0.0962413 43.92888809 -0.09482635 42.64293243 -0.09336853 41.31800842 C-0.08954418 37.89356557 -0.07971462 34.46916491 -0.06866455 31.04473877 C-0.05844864 27.55261811 -0.05387053 24.06049066 -0.04882812 20.56835938 C-0.03809227 13.71222222 -0.02101684 6.85611313 0 0 Z " fill="#FC4F00" transform="translate(2876,258)"/>
<path d="M0 0 C0 19.14 0 38.28 0 58 C-7.80142407 61.25059336 -15.54162519 64.37473548 -23.48046875 67.23046875 C-24.55106537 67.61837082 -25.62166199 68.00627289 -26.72470093 68.40592957 C-29.01908236 69.23698086 -31.31391443 70.06678891 -33.60916138 70.89544678 C-39.1351121 72.89073654 -44.65815854 74.8940278 -50.18131065 76.89704895 C-52.07610202 77.58413062 -53.97100793 78.27089572 -55.86592102 78.9576416 C-73.0668157 85.19333605 -90.23597921 91.5154582 -107.40513611 97.83789062 C-113.15247885 99.95389661 -118.90181488 102.06436507 -124.65306091 104.16973877 C-128.25760112 105.48947155 -131.86138533 106.81126053 -135.46505737 108.13336182 C-137.14075304 108.74755829 -138.81679333 109.36081547 -140.49319458 109.9730835 C-142.76722479 110.8037676 -145.04000223 111.63779082 -147.3125 112.47265625 C-147.98276718 112.71650558 -148.65303436 112.96035492 -149.34361267 113.21159363 C-152.4106996 114.19688852 -152.4106996 114.19688852 -155 116 C-133.09776992 124.11910963 -111.15671297 132.12645161 -89.1875 140.0625 C-69.07248523 147.33022866 -48.97874362 154.65314048 -28.90961075 162.04661179 C-27.00507769 162.74812968 -25.1003796 163.44919788 -23.19564819 164.150177 C-19.67156356 165.44763027 -16.14813728 166.74685178 -12.625 168.046875 C-11.04656059 168.62812386 -11.04656059 168.62812386 -9.43623352 169.22111511 C-8.00213387 169.75119926 -8.00213387 169.75119926 -6.5390625 170.29199219 C-5.70584473 170.59949402 -4.87262695 170.90699585 -4.01416016 171.22381592 C-2 172 -2 172 0 173 C0 192.47 0 211.94 0 232 C-11.24895203 228.62531439 -11.24895203 228.62531439 -15.26367188 227.08081055 C-16.17916306 226.73073441 -17.09465424 226.38065826 -18.03788757 226.01997375 C-19.00507217 225.6459996 -19.97225677 225.27202545 -20.96875 224.88671875 C-22.01702469 224.48490891 -23.06529938 224.08309906 -24.14533997 223.66911316 C-26.41110028 222.80023377 -28.67624325 221.92974312 -30.94082642 221.05780029 C-36.46761709 218.92995721 -41.99822124 216.81206725 -47.52843666 214.69314575 C-49.46318864 213.95167747 -51.39776953 213.20976426 -53.33232117 212.46777344 C-66.97899828 207.23488812 -80.6449397 202.05307766 -94.3125 196.875 C-97.95767408 195.4934037 -101.60278633 194.11164438 -105.24789429 192.72987366 C-107.64958853 191.81945417 -110.05130145 190.90908394 -112.45303345 189.99876404 C-131.65087997 182.72177175 -150.84182055 175.4265939 -170.03173828 168.12872314 C-173.04581822 166.98257698 -176.06000859 165.83672163 -179.07421875 164.69091797 C-183.96583088 162.8313474 -188.85707727 160.97081794 -193.74804688 159.10955811 C-195.55262664 158.42295489 -197.35731053 157.73662529 -199.16210938 157.05059814 C-201.63963519 156.10876915 -204.11674329 155.16584951 -206.59375 154.22265625 C-207.30188843 153.95372055 -208.01002686 153.68478485 -208.73962402 153.40769958 C-214.18635155 151.33166042 -219.585632 149.1657472 -225 147 C-225 126.54 -225 106.08 -225 85 C-211.18500426 79.24375178 -211.18500426 79.24375178 -204.87890625 76.828125 C-204.15400497 76.54901276 -203.4291037 76.26990051 -202.68223572 75.98233032 C-200.30971663 75.06965068 -197.93617005 74.15968167 -195.5625 73.25 C-194.72332031 72.92775452 -193.88414062 72.60550903 -193.01953125 72.27349854 C-178.59949318 66.73631977 -164.15383252 61.26798729 -149.70007324 55.81954956 C-133.88824472 49.85874119 -118.09625578 43.84722676 -102.3125 37.8125 C-79.87917349 29.23557999 -57.42934173 20.70300086 -34.9699707 12.19458008 C-33.79679794 11.75003983 -32.62362518 11.30549957 -31.41490173 10.8474884 C-29.24726745 10.02619567 -27.07952315 9.20519323 -24.91163635 8.38456726 C-23.92678757 8.01144913 -22.94193878 7.63833099 -21.92724609 7.25390625 C-20.96921082 6.89184082 -20.01117554 6.52977539 -19.02410889 6.15673828 C-16.83397119 5.31899857 -14.64946104 4.46649755 -12.46856689 3.60498047 C-11.30283142 3.14623535 -10.13709595 2.68749023 -8.93603516 2.21484375 C-7.87277008 1.79195068 -6.809505 1.36905762 -5.71401978 0.93334961 C-3 0 -3 0 0 0 Z " fill="#FC4F00" transform="translate(499,258)"/>
<path d="M0 0 C0.84433594 0.37253906 1.68867187 0.74507813 2.55859375 1.12890625 C8.92907905 4.29758785 13.95779247 9.05007913 19 14 C19.64066406 14.61617188 20.28132813 15.23234375 20.94140625 15.8671875 C33.85355278 29.32817248 37.62372439 48.24067949 37.40478516 66.25415039 C36.85931484 83.40493542 32.78918387 99.36660861 22 113 C21.50113281 113.68578125 21.00226563 114.3715625 20.48828125 115.078125 C10.98080409 127.24386404 -4.99650004 134.06220781 -20 136 C-39.77138717 137.25892966 -56.45466411 133.02460013 -71.875 120.1875 C-84.11910781 108.53511487 -92.1110929 92.13178373 -93.17700195 75.18603516 C-93.63155803 53.69694186 -92.44521633 33.59194923 -77.625 16.625 C-76.10260996 15.06429478 -74.56145452 13.5216215 -73 12 C-72.32453125 11.29230469 -71.6490625 10.58460938 -70.953125 9.85546875 C-53.12030401 -7.67566917 -22.0799708 -10.07695254 0 0 Z " fill="#010000" transform="translate(1024,347)"/>
<path d="M0 0 C1.42345988 0.00373644 2.84692236 0.00658043 4.27038574 0.00857544 C7.99234284 0.01616225 11.71414047 0.03576731 15.43603516 0.0579834 C19.24379317 0.07854936 23.05157729 0.0876 26.859375 0.09765625 C34.3125722 0.11901861 41.76563864 0.15309365 49.21875 0.1953125 C49.36552671 4.48661175 49.45331586 8.77725474 49.53125 13.0703125 C49.57314453 14.27429688 49.61503906 15.47828125 49.65820312 16.71875 C49.76829891 24.82179945 48.59208913 30.35743531 44.21875 37.1953125 C43.53462036 38.29178101 43.53462036 38.29178101 42.83666992 39.41040039 C35.74718394 50.30434046 22.9695135 56.53533513 10.6171875 59.30078125 C-3.10769645 61.89159198 -20.56863316 62.85953538 -32.78125 55.1953125 C-39.9556525 50.20271459 -44.90956619 44.88527303 -46.78125 36.1953125 C-47.67872893 28.51950584 -46.62208932 20.95062471 -43.21875 14.0078125 C-37.70670746 7.64776341 -30.81087488 4.30905003 -22.78125 2.1953125 C-21.71592041 1.85612793 -20.65059082 1.51694336 -19.55297852 1.16748047 C-13.14108608 -0.42130544 -6.56062351 -0.05086174 0 0 Z " fill="#020000" transform="translate(1865.78125,432.8046875)"/>
<path d="M0 0 C0.66 0.66 1.32 1.32 2 2 C-2.06441377 5.81240594 -6.18761636 9.16359439 -10.88700867 12.17424011 C-21.10291259 18.9195288 -31.04314564 27.14072074 -33.79125977 39.58227539 C-36.56228278 59.44885147 -35.27512529 80.05543767 -34 100 C-34.33 100 -34.66 100 -35 100 C-35.35004807 91.6372644 -35.61526083 83.27766203 -35.77718258 74.90937614 C-35.85496977 71.02172265 -35.96009725 67.13913222 -36.1315918 63.25439453 C-37.2979555 36.11003901 -37.2979555 36.11003901 -31.97875977 29.14111328 C-28.95499948 26.03455039 -25.58591045 23.62118321 -21.93527222 21.30316162 C-18.94302168 19.28825849 -16.65871069 16.86024068 -14.16015625 14.2578125 C-12.87915039 12.97197266 -12.87915039 12.97197266 -11.57226562 11.66015625 C-10.74404297 10.82355469 -9.91582031 9.98695313 -9.0625 9.125 C-8.17626953 8.23425781 -7.29003906 7.34351563 -6.37695312 6.42578125 C-4.24889547 4.28622058 -2.12324664 2.14433312 0 0 Z " fill="#2B0D00" transform="translate(671,440)"/>
<path d="M0 0 C0.66 0.33 1.32 0.66 2 1 C-0.97 3.97 -3.94 6.94 -7 10 C-7.33 9.34 -7.66 8.68 -8 8 C-3.375 2.25 -3.375 2.25 0 0 Z " fill="#270C00" transform="translate(1247,344)"/>
</svg>
